# xmcd
#
# Track frame offsets:
#	150
#	14803
#	75655
#	90020
#	109409
#	137762
#	172482
#
# Disc length: 2807 seconds
#
# Revision: 1
# Processed by: cddbd v1.5PL3 Copyright (c) Steve Scherf et al.
# Submitted via: audiograbber 1.82.01
#
DISCID=590af507
DTITLE=Santana - 1984-10-31 - The Ritz , New York City - Disc 2
DYEAR=1900
DGENRE=
TTITLE0=Santana - Touchdown Raiders
TTITLE1=Santana - Soul Sacrifice
TTITLE2=Santana - Batuka
TTITLE3=Santana - No One To Depend On
TTITLE4=Santana - Black Magic Woman - Gypsy Queen
TTITLE5=Santana - Europa
TTITLE6=Santana - Right Now
EXTD=
EXTT0=
EXTT1=
EXTT2=
EXTT3=
EXTT4=
EXTT5=
EXTT6=
PLAYORDER=
